<?xml version="1.0" encoding="UTF-8"?>
<svg id="Layer_1" xmlns="http://www.w3.org/2000/svg" version="1.1" viewBox="0 0 1081.3 2110">
  <!-- Generator: Adobe Illustrator 29.0.0, SVG Export Plug-In . SVG Version: 2.1.0 Build 186)  -->
  <defs>
    <style>
      .st0 {
        fill: #599636;
      }

      .st1 {
        fill: #c2bfbf;
      }

      .st2 {
        fill: #6cac48;
      }
    </style>
  </defs>
  <path class="st0" d="M525.2,35.9l54.2,101.8c12.2,18.8,25.4,35.4,40.9,50.9,45.6,45,88,93,127.1,143.8,91.8,120.5,153.7,254.4,197.9,399.2,26.5,88.4,40.9,179.2,42,270.9,4.4,274.3-89.6,509.8-279.1,705.5-30.8,31-64.1,59.5-99.6,85.1-18.8,0-27.7-14.4-35.4-27.7-14.1-24.6-23.5-51.6-27.7-79.6-6.7-33.2-11-66.4-8.9-100.6v-15.5c-1.5-3.3-18.1-1525.9-11.5-1533.7h0Z"/>
  <path class="st2" d="M525.2,32.5c-2.2-4.4-4.4-1.1-6.7,1.1,1.1,22.2-6.7,42-18.8,60.9-13.3,18.8-31,33.2-48.7,48.7-98.3,85.1-175.7,188-237.7,303-82.5,154.8-125,320.7-137,495.4-5.5,63,19.9,285.3,39.8,349.4,54.2,170.3,151.5,313,277.6,436.8,31,29.8,64.1,57.5,98.3,84.1,10,0,11-8.9,13.3-15.5,4.4-14.1,7.7-28.5,10-43.1l22.2-165.8-12.3-1554.8Z"/>
  <path class="st1" d="M579.4,1860.4c2.2-25.4,14.4-46.4,27.7-67.4-13.3-5.5-23.2-16.5-31-28.7-6.7-11.6-12.2-23.8-16.5-36.5-15.5-46.4-18.8-95.2-23.2-142.6v-28.7c-5.5,4.4-6.7,42-6.7,47.6-3.2,50.2-9.9,100-19.9,149.3-3.3,19.9-5.5,39.8-17.8,57.5,0,2.2,0,4.4,1.1,7.7,19.9,58.6,25.4,118.3,28.7,179.2v22.2c0,26.5-1.1,20.9,20.9,29.8,8.9,3.3,18.8,4.4,27.7,11,6.7,0,7.7-5.5,7.7-10l-3.3-36.5v-101.8c-1.1-17.8,2.2-35.4,4.4-52h0Z"/>
</svg>